<?xml version="1.0" encoding="utf-8"?>
<!-- Generator: Adobe Illustrator 25.2.1, SVG Export Plug-In . SVG Version: 6.00 Build 0)  -->
<svg version="1.1" id="Capa_1" xmlns="http://www.w3.org/2000/svg" xmlns:xlink="http://www.w3.org/1999/xlink" x="0px" y="0px"
	 viewBox="0 0 52.9 52.9" style="enable-background:new 0 0 52.9 52.9;" xml:space="preserve">
<style type="text/css">
	.st0{fill:#F0F0F0;}
</style>
<g>
	<path class="st0" d="M52.4,9.7c-0.4-0.2-0.8-0.2-1.2,0c-0.4,0.3-1.2,0.6-2,0.8c2-2.3,2.1-3.8,2.1-4.2c0-0.4-0.2-0.7-0.6-0.8
		c-0.3-0.2-0.7-0.1-1,0.1c-2.3,1.7-4.6,2-6,2.1c-2.1-2-4.8-3.1-7.7-3.1c-6.2,0-11.2,5.1-11.2,11.4c0,0.5,0,1.1,0.1,1.6
		C14.2,17.4,5.5,7.1,5.4,7C5.2,6.8,4.9,6.6,4.6,6.7C4.2,6.7,4,6.9,3.8,7.2c-3.1,5.4-1,10.1,0.9,12.8c-0.3-0.2-0.6-0.4-0.8-0.5
		c-0.3-0.2-0.7-0.3-1-0.1c-0.3,0.2-0.6,0.5-0.6,0.9c-0.1,5.1,2.4,8,4.7,9.7c-0.3,0-0.6,0.1-0.8,0.3c-0.2,0.3-0.3,0.6-0.2,1
		c1.6,5.2,5.5,7,8,7.6c-5.1,4-12.7,2.7-12.8,2.7c-0.5-0.1-0.9,0.2-1.1,0.6C-0.1,42.5,0,43,0.4,43.3c5.4,4.1,11.9,5,16.6,5
		c3.5,0,6.1-0.5,6.3-0.6C47,42.1,47.6,20.4,47.6,16.9c4.4-4.1,5.1-5.7,5.3-6.1C52.9,10.3,52.8,9.9,52.4,9.7z"/>
</g>
</svg>
